<?xml version="1.0" standalone="no"?>
<!DOCTYPE svg PUBLIC "-//W3C//DTD SVG 20010904//EN"
 "http://www.w3.org/TR/2001/REC-SVG-20010904/DTD/svg10.dtd">
<svg version="1.0" xmlns="http://www.w3.org/2000/svg"
 width="2000.000000pt" height="2000.000000pt" viewBox="0 0 2000.000000 2000.000000"
 preserveAspectRatio="xMidYMid meet">

<g transform="translate(0.000000,2000.000000) scale(0.100000,-0.100000)"
fill="#000000" stroke="none">
<path d="M9630 15794 c-982 -58 -1594 -146 -2395 -344 -500 -124 -1211 -359
-1590 -525 -16 -7 -84 -36 -150 -65 -282 -122 -381 -168 -570 -263 -1396 -699
-2576 -1639 -3542 -2819 -250 -306 -379 -481 -628 -858 -159 -241 -429 -698
-428 -725 1 -26 296 -528 429 -730 258 -390 430 -624 689 -935 422 -505 833
-920 1320 -1331 465 -393 882 -690 1445 -1031 232 -141 881 -483 1047 -551 32
-14 132 -57 223 -97 609 -267 1313 -500 1968 -651 379 -87 885 -177 1177 -209
55 -6 132 -15 170 -20 105 -15 545 -50 760 -60 243 -12 803 -12 1055 0 958 45
1895 204 2810 477 354 105 801 266 1155 415 183 77 375 164 528 240 76 37 139
68 141 68 4 0 57 28 381 200 253 135 718 425 1035 647 242 170 680 513 864
677 661 591 1100 1069 1587 1731 224 305 567 846 699 1104 l18 37 -50 89
c-336 603 -676 1099 -1102 1609 -837 1002 -1864 1848 -3031 2496 -287 160
-760 393 -985 485 -30 13 -111 47 -180 75 -305 128 -765 290 -1115 394 -268
79 -367 104 -800 207 -259 61 -761 145 -1100 184 -115 13 -228 27 -250 30 -22
3 -170 15 -330 26 -274 20 -1064 34 -1255 23z m690 -1904 c102 -6 212 -15 245
-21 33 -5 102 -17 154 -25 99 -15 287 -60 406 -95 114 -35 249 -79 270 -89 11
-5 65 -27 120 -50 217 -91 453 -217 630 -339 130 -88 134 -92 260 -192 119
-96 136 -110 250 -220 487 -465 843 -1076 1017 -1739 136 -520 151 -1113 43
-1665 -39 -199 -110 -436 -195 -655 -38 -98 -197 -412 -264 -524 -284 -468
-688 -888 -1136 -1180 -124 -81 -140 -91 -255 -154 -381 -210 -809 -353 -1270
-424 -136 -21 -184 -23 -515 -23 -350 0 -372 1 -540 28 -819 130 -1518 485
-2093 1062 -351 353 -668 842 -823 1270 -8 22 -19 49 -24 60 -45 92 -162 544
-180 700 -6 50 -15 104 -20 120 -5 17 -14 125 -20 240 -12 235 -1 559 25 705
8 47 21 123 29 170 34 202 126 536 177 646 10 22 19 44 19 48 0 4 7 22 15 39
8 18 32 75 55 127 88 205 266 506 416 706 251 333 570 634 907 857 128 85 368
223 472 271 159 74 377 156 535 203 182 53 324 83 575 124 155 25 463 33 715
19z"/>
</g>
</svg>
